<?xml version="1.0" encoding="utf-8"?>
<!-- Generator: Adobe Illustrator 25.2.1, SVG Export Plug-In . SVG Version: 6.00 Build 0)  -->
<svg version="1.1" id="Layer_3_copy_2" xmlns="http://www.w3.org/2000/svg" xmlns:xlink="http://www.w3.org/1999/xlink" x="0px"
	 y="0px" viewBox="0 0 200 200" style="enable-background:new 0 0 200 200;" xml:space="preserve">
<style type="text/css">
	.st0{fill:#C3415C;}
</style>
<g>
	<path class="st0" d="M166.4,98.2v-0.4l-0.1-0.4c-7.8-25.2-35-42.8-66.1-42.8c-31.3,0-58.6,18-66.4,43.8c-0.6,1.9-0.2,3.5,0,4.3
		c5.4,17.3,20,31,38.7,37.9c8.4,3.1,17.7,4.8,27.4,4.8s19.1-1.7,27.5-4.9c18.9-7,33.6-21.1,38.8-38.9
		C166.4,101.3,166.7,100.3,166.4,98.2z M134.5,127.7c-3.2,2.1-6.5,3.9-10,5.3c-7.5,3.1-15.9,4.7-24.5,4.7s-16.9-1.6-24.5-4.7
		c-3.4-1.4-6.7-3.1-9.8-5.1c-9.3-6-16-14.5-19-23.7c3-9.5,9.7-18.1,19-24.3c9.9-6.6,21.8-10.1,34.5-10.1c12.6,0,24.4,3.4,34.3,9.8
		c9.2,6,16,14.4,19,23.7v0.1C150.5,112.9,143.8,121.5,134.5,127.7z"/>
	<path class="st0" d="M100,75.7c-15.2,0-27.5,12.3-27.5,27.5s12.3,27.5,27.5,27.5s27.5-12.3,27.5-27.5S115.2,75.7,100,75.7z
		 M116.8,105.9c-1.5,0-2.7-1.2-2.7-2.7c0-7.8-6.3-14.1-14.1-14.1c-1.5,0-2.7-1.2-2.7-2.7s1.2-2.7,2.7-2.7c10.7,0,19.5,8.7,19.5,19.5
		C119.5,104.7,118.3,105.9,116.8,105.9z"/>
</g>
</svg>
